<svg viewBox="0 0 1417 131" width="100%" xmlns="http://www.w3.org/2000/svg">
<path d="M0 128.183H25.6501V82.4032L38.5635 69.3736L79.2498 128.183H109.322L56.607 52.6465L106.138 2.28898H74.2967L25.6501 52.4704V2.28898H0V128.183Z"/>
<path d="M113.944 128.183H139.948L148.262 101.419H193.901L202.392 128.183H229.104L184.526 2.28898H157.991L113.944 128.183ZM165.598 45.6035C167.72 38.9126 170.905 26.2352 170.905 26.2352H171.258C171.258 26.2352 174.266 38.9126 176.388 45.6035L187.71 81.875H154.276L165.598 45.6035Z"/>
<path d="M214.231 23.7702H252.263V128.183H277.913V23.7702H315.946V2.28898H214.231V23.7702Z" />
<path d="M328.918 128.183H422.496V106.878H354.568V72.8952H413.651V51.9422H354.568V23.7702H421.966V2.28898H328.918V128.183Z"/>
<path d="M518.182 131C546.663 131 567.36 116.738 567.36 91.207C567.36 64.0914 546.132 57.9288 520.128 52.2944C501.377 48.2446 492.532 45.2513 492.532 35.039C492.532 26.0591 501.554 20.2487 515.352 20.2487C528.442 20.2487 538.349 26.5874 539.764 39.2648H564.352C562.407 13.9099 544.009 0 515.529 0C487.402 0 467.059 12.8535 467.059 37.6801C467.059 63.9153 487.756 69.9019 510.399 75.0081C529.681 79.41 541.71 81.875 541.71 94.2003C541.71 105.821 530.211 110.399 517.121 110.399C499.077 110.399 490.409 104.413 488.641 89.2702H463.521C464.406 115.858 483.864 131 518.182 131Z"/>
<path d="M606.786 128.183H632.436V79.586L674.537 2.28898H647.649L628.898 39.6169C625.183 47.1882 620.407 57.5766 620.407 57.5766H620.053C620.053 57.5766 615.63 47.1882 611.739 39.6169L592.634 2.28898H564.684L606.786 79.586V128.183Z"/>
<path d="M687.011 128.183H772.099V106.878H712.661V2.28898H687.011V128.183Z"/>
<path d="M793.784 128.183H817.134L859.766 2.28898H833.763L811.65 75.1841C809.174 83.2836 806.167 95.2567 806.167 95.2567H805.813C805.813 95.2567 802.806 83.4597 800.329 75.1841L778.04 2.28898H751.152L793.784 128.183Z"/>
<path d="M875.013 128.183H968.591V106.878H900.663V72.8952H959.746V51.9422H900.663V23.7702H968.06V2.28898H875.013V128.183Z"/>
<path d="M1033.7 131C1062.18 131 1082.88 116.738 1082.88 91.207C1082.88 64.0914 1061.65 57.9288 1035.65 52.2944C1016.9 48.2446 1008.05 45.2513 1008.05 35.039C1008.05 26.0591 1017.07 20.2487 1030.87 20.2487C1043.96 20.2487 1053.87 26.5874 1055.28 39.2648H1079.87C1077.92 13.9099 1059.53 0 1031.05 0C1002.92 0 982.577 12.8535 982.577 37.6801C982.577 63.9153 1003.27 69.9019 1025.92 75.0081C1045.2 79.41 1057.23 81.875 1057.23 94.2003C1057.23 105.821 1045.73 110.399 1032.64 110.399C1014.6 110.399 1005.93 104.413 1004.16 89.2702H979.039C979.923 115.858 999.382 131 1033.7 131Z"/>
<path d="M1087.32 23.7702H1125.36V128.183H1151.01V23.7702H1189.04V2.28898H1087.32V23.7702Z"/>
<path d="M1203.04 128.183H1296.62V106.878H1228.69V72.8952H1287.77V51.9422H1228.69V23.7702H1296.09V2.28898H1203.04V128.183Z"/>
<path d="M1387.28 128.183H1417L1385.34 76.5927C1401.26 71.3105 1410.45 58.9852 1410.45 41.3777C1410.45 30.1089 1406.21 21.3051 1399.13 14.086C1391.7 6.51479 1380.74 2.28898 1366.05 2.28898H1310.51V128.183H1337.04V79.586H1357.92L1387.28 128.183ZM1337.04 24.4745H1363.93C1376.67 24.4745 1384.1 30.1089 1384.1 41.5538C1384.1 52.6465 1377.02 58.8091 1363.58 58.8091H1337.04V24.4745Z"/>
</svg>
